<svg xmlns="http://www.w3.org/2000/svg" width="380" height="380" viewBox="0 0 380 380" role="img" aria-label="Language Radar"><rect x=".5" y=".5" width="379" height="379" rx="10" fill="#0b0709" stroke="#3a1a22"/><g font-family="ui-monospace, SFMono-Regular, Menlo, Consolas, monospace"><text x="190.0" y="30" text-anchor="middle" font-size="14" font-weight="700" fill="#e9dfe1">Language Radar</text><polygon points="190.0,162.5 217.5,190.0 190.0,217.5 162.5,190.0" fill="none" stroke="#3a1a22"/><polygon points="190.0,135.0 245.0,190.0 190.0,245.0 135.0,190.0" fill="none" stroke="#3a1a22"/><polygon points="190.0,107.5 272.5,190.0 190.0,272.5 107.5,190.0" fill="none" stroke="#3a1a22"/><polygon points="190.0,80.0 300.0,190.0 190.0,300.0 80.0,190.0" fill="none" stroke="#3a1a22"/><line x1="190.0" y1="190.0" x2="190.0" y2="80.0" stroke="#3a1a22"/><text x="190.0" y="62.0" text-anchor="middle" font-size="11" fill="#e9dfe1">HTML (460984)</text><line x1="190.0" y1="190.0" x2="300.0" y2="190.0" stroke="#3a1a22"/><text x="322.0" y="194.0" text-anchor="start" font-size="11" fill="#e9dfe1">JavaScript (296572)</text><line x1="190.0" y1="190.0" x2="190.0" y2="300.0" stroke="#3a1a22"/><text x="190.0" y="326.0" text-anchor="middle" font-size="11" fill="#e9dfe1">Python (18048)</text><line x1="190.0" y1="190.0" x2="80.0" y2="190.0" stroke="#3a1a22"/><text x="58.0" y="194.0" text-anchor="end" font-size="11" fill="#e9dfe1">CSS (5257)</text><polygon points="190.0,80.0 260.8,190.0 190.0,194.4 185.6,190.0" fill="#d63d58" fill-opacity=".25" stroke="#d63d58" stroke-width="2"/><circle cx="190.0" cy="80.0" r="3.5" fill="#d63d58"/><circle cx="260.8" cy="190.0" r="3.5" fill="#d63d58"/><circle cx="190.0" cy="194.4" r="3.5" fill="#d63d58"/><circle cx="185.6" cy="190.0" r="3.5" fill="#d63d58"/></g></svg>